<svg width="14" height="14" viewBox="0 0 14 14" fill="none" xmlns="http://www.w3.org/2000/svg">
<g clip-path="url(#clip0_331_4593)">
<path d="M7.58325 8.16663L5.83325 6.41663M8.75593 2.04163V1.16663M11.0539 2.95201L11.6726 2.33329M11.0539 7.58329L11.6726 8.20203M6.42259 2.95201L5.8039 2.33329M11.9643 5.24996H12.8393M3.57654 12.1733L8.96493 6.78494C9.19593 6.55394 9.31143 6.43838 9.35472 6.30521C9.39281 6.18808 9.39281 6.06184 9.35472 5.94471C9.31143 5.8115 9.19593 5.69601 8.96493 5.46499L8.5349 5.03492C8.30384 4.80391 8.18834 4.68841 8.05517 4.64514C7.93803 4.60707 7.8118 4.60707 7.69467 4.64514C7.56143 4.68841 7.44593 4.80391 7.21493 5.03492L1.82654 10.4233C1.59554 10.6543 1.48003 10.7699 1.43675 10.903C1.39869 11.0202 1.39869 11.1464 1.43675 11.2635C1.48003 11.3967 1.59554 11.5123 1.82654 11.7433L2.25661 12.1733C2.48762 12.4043 2.60313 12.5199 2.73632 12.5631C2.85348 12.6012 2.97968 12.6012 3.09684 12.5631C3.23003 12.5199 3.34554 12.4043 3.57654 12.1733Z" stroke="#334155" stroke-width="1.3" stroke-linecap="round" stroke-linejoin="round"/>
</g>
<defs>
<clipPath id="clip0_331_4593">
<rect width="14" height="14" fill="white"/>
</clipPath>
</defs>
</svg>
