<svg width="24" height="24" viewBox="0 0 24 24" fill="none" xmlns="http://www.w3.org/2000/svg">
<rect width="24" height="24" rx="8" fill="#276CF0"/>
<path d="M9.88849 10.1645C10.2945 11.0101 10.848 11.8026 11.5489 12.5035C12.2498 13.2045 13.0423 13.7579 13.8879 14.1639C13.9607 14.1988 13.997 14.2163 14.0431 14.2297C14.2066 14.2774 14.4074 14.2431 14.5459 14.144C14.5849 14.1161 14.6182 14.0827 14.6849 14.016C14.8889 13.8121 14.9908 13.7101 15.0934 13.6435C15.4801 13.392 15.9786 13.392 16.3652 13.6435C16.4678 13.7101 16.5698 13.8121 16.7737 14.016L16.8874 14.1297C17.1974 14.4397 17.3524 14.5947 17.4366 14.7612C17.604 15.0923 17.604 15.4833 17.4366 15.8143C17.3524 15.9808 17.1974 16.1358 16.8874 16.4458L16.7954 16.5378C16.4865 16.8467 16.332 17.0012 16.122 17.1192C15.8889 17.2501 15.527 17.3442 15.2597 17.3434C15.0188 17.3427 14.8542 17.296 14.5249 17.2025C12.7554 16.7003 11.0857 15.7527 9.69272 14.3597C8.29973 12.9667 7.35212 11.297 6.84989 9.5275C6.75643 9.19824 6.70971 9.03361 6.70899 8.79273C6.70819 8.52543 6.80232 8.16348 6.93323 7.93043C7.05121 7.72041 7.20568 7.56594 7.51463 7.25699L7.60659 7.16504C7.91659 6.85503 8.0716 6.70003 8.23807 6.61583C8.56915 6.44837 8.96014 6.44837 9.29121 6.61583C9.45768 6.70003 9.61269 6.85503 9.9227 7.16504L10.0364 7.27871C10.2403 7.48265 10.3423 7.58462 10.4089 7.68716C10.6604 8.07384 10.6604 8.57235 10.4089 8.95904C10.3423 9.06157 10.2403 9.16354 10.0364 9.36748C9.96969 9.43416 9.93635 9.4675 9.90844 9.50647C9.80927 9.64498 9.77502 9.84579 9.8227 10.0093C9.83611 10.0554 9.85357 10.0917 9.88849 10.1645Z" stroke="white" stroke-width="1.3" stroke-linecap="round" stroke-linejoin="round"/>
</svg>
