<svg width="14" height="14" viewBox="0 0 14 14" fill="none" xmlns="http://www.w3.org/2000/svg">
<g clip-path="url(#clip0_344_13614)">
<path d="M9.96374 6.56693C9.07872 6.25608 8.12695 6.08703 7.1357 6.08703C6.14445 6.08703 5.19268 6.25608 4.30766 6.56693C4.23153 6.59367 4.19347 6.60704 4.15144 6.6301C4.00209 6.71203 3.88431 6.87824 3.8565 7.0463C3.84867 7.09359 3.84867 7.14074 3.84867 7.23505C3.84867 7.52346 3.84867 7.66766 3.82331 7.78731C3.72766 8.23851 3.37516 8.59101 2.92396 8.68666C2.80431 8.71203 2.66011 8.71203 2.37169 8.71203L2.21094 8.71203C1.77252 8.71203 1.55331 8.71203 1.37606 8.65385C1.02354 8.53815 0.74707 8.26168 0.631373 7.90917C0.573199 7.73191 0.573198 7.51271 0.573198 7.07429V6.94425C0.573198 6.50733 0.573198 6.28887 0.638281 6.05694C0.7105 5.79959 0.899881 5.47709 1.08945 5.28864C1.26029 5.11882 1.40974 5.03545 1.70865 4.86871C3.31499 3.97263 5.16572 3.46203 7.1357 3.46203C9.10568 3.46203 10.9564 3.97263 12.5628 4.86871C12.8617 5.03545 13.0111 5.11882 13.1819 5.28864C13.3715 5.47709 13.5609 5.79959 13.6331 6.05694C13.6982 6.28887 13.6982 6.50733 13.6982 6.94425V7.07429C13.6982 7.51271 13.6982 7.73191 13.64 7.90917C13.5243 8.26168 13.2479 8.53815 12.8953 8.65385C12.7181 8.71203 12.4989 8.71203 12.0605 8.71203H11.8997C11.6113 8.71203 11.4671 8.71203 11.3474 8.68666C10.8962 8.59101 10.5437 8.23851 10.4481 7.78731C10.4227 7.66766 10.4227 7.52346 10.4227 7.23505C10.4227 7.14074 10.4227 7.09359 10.4149 7.0463C10.3871 6.87824 10.2693 6.71203 10.12 6.6301C10.0779 6.60704 10.0399 6.59367 9.96374 6.56693Z" stroke="#EDF1F6" stroke-width="1.3" stroke-linecap="round" stroke-linejoin="round"/>
</g>
<defs>
<clipPath id="clip0_344_13614">
<rect width="14" height="14" fill="white"/>
</clipPath>
</defs>
</svg>
