<svg width="14" height="14" viewBox="0 0 14 14" fill="none" xmlns="http://www.w3.org/2000/svg">
<g clip-path="url(#clip0_331_10762)">
<path d="M5.83332 8.75008L4.03942 10.5664C3.7892 10.8197 3.66409 10.9464 3.55654 10.9554C3.46325 10.9631 3.3719 10.9256 3.31097 10.8545C3.24073 10.7726 3.24073 10.5946 3.24073 10.2385V9.32851C3.24073 9.00908 2.97911 8.77791 2.66302 8.73159C1.898 8.61953 1.29719 8.01876 1.18514 7.25371C1.16666 7.1276 1.16666 6.97704 1.16666 6.67598V3.96675C1.16666 2.98665 1.16666 2.49661 1.35739 2.12227C1.52517 1.79298 1.79289 1.52526 2.12217 1.35749C2.49652 1.16675 2.98656 1.16675 3.96666 1.16675H8.28332C9.26344 1.16675 9.75344 1.16675 10.1278 1.35749C10.4571 1.52526 10.7248 1.79298 10.8926 2.12227C11.0833 2.49661 11.0833 2.98665 11.0833 3.96675V6.41675M11.0833 12.8334L9.81376 11.9508C9.63531 11.8267 9.54606 11.7646 9.44894 11.7206C9.36272 11.6816 9.27213 11.6532 9.17909 11.6361C9.07421 11.6168 8.96553 11.6168 8.74818 11.6168H7.69999C7.0466 11.6168 6.71987 11.6168 6.47032 11.4896C6.25081 11.3778 6.07231 11.1993 5.96049 10.9798C5.83332 10.7301 5.83332 10.4035 5.83332 9.75009V8.28341C5.83332 7.63002 5.83332 7.3033 5.96049 7.05375C6.07231 6.83424 6.25081 6.65574 6.47032 6.54391C6.71987 6.41675 7.0466 6.41675 7.69999 6.41675H10.9667C11.62 6.41675 11.9468 6.41675 12.1963 6.54391C12.4158 6.65574 12.5943 6.83424 12.7062 7.05375C12.8333 7.3033 12.8333 7.63002 12.8333 8.28341V9.86676C12.8333 10.4104 12.8333 10.6821 12.7445 10.8966C12.6261 11.1824 12.399 11.4096 12.1131 11.5279C11.8987 11.6168 11.6269 11.6168 11.0833 11.6168V12.8334Z" stroke="#334155" stroke-width="1.3" stroke-linecap="round" stroke-linejoin="round"/>
</g>
<defs>
<clipPath id="clip0_331_10762">
<rect width="14" height="14" fill="white"/>
</clipPath>
</defs>
</svg>
