<svg width="14" height="14" viewBox="0 0 14 14" fill="none" xmlns="http://www.w3.org/2000/svg">
<g clip-path="url(#clip0_357_38106)">
<path d="M12.1831 6.99969C12.1829 4.13717 9.86205 1.81708 6.99951 1.81708C4.13709 1.81725 1.81707 4.13728 1.81689 6.99969C1.81689 8.25105 2.26022 9.39896 2.99854 10.2946C3.54506 9.66586 4.34989 9.26639 5.24951 9.2663H8.74951C9.64912 9.2663 10.4539 9.66598 11.0005 10.2946C11.739 9.39891 12.1831 8.2512 12.1831 6.99969ZM5.24951 10.5671C4.72379 10.5672 4.25285 10.8074 3.94385 11.1862C4.8007 11.8128 5.8567 12.1832 6.99951 12.1833C8.14196 12.1833 9.19745 11.8124 10.0542 11.1862C9.74513 10.8078 9.275 10.5671 8.74951 10.5671H5.24951ZM8.68311 5.54169C8.68311 4.61201 7.92917 3.85809 6.99951 3.85809C6.06998 3.85827 5.31689 4.61212 5.31689 5.54169C5.31689 6.47124 6.06999 7.2251 6.99951 7.22528C7.92917 7.22528 8.68311 6.47134 8.68311 5.54169ZM13.4829 6.99969C13.4829 10.5803 10.5801 13.4831 6.99951 13.4831C3.41901 13.4829 0.516113 10.5802 0.516113 6.99969C0.516289 3.41931 3.41912 0.516473 6.99951 0.516296C10.58 0.516296 13.4827 3.41919 13.4829 6.99969ZM9.98291 5.54169C9.98291 7.18931 8.64714 8.52509 6.99951 8.52509C5.35201 8.52491 4.01611 7.1892 4.01611 5.54169C4.01611 3.89415 5.35201 2.55846 6.99951 2.55829C8.64713 2.55829 9.98291 3.89403 9.98291 5.54169Z" fill="#64758B"/>
</g>
<defs>
<clipPath id="clip0_357_38106">
<rect width="14" height="14" fill="white"/>
</clipPath>
</defs>
</svg>
