<svg width="16" height="16" viewBox="0 0 16 16" fill="none" xmlns="http://www.w3.org/2000/svg">
<g clip-path="url(#clip0_337_18254)">
<g clip-path="url(#clip1_337_18254)">
<path d="M2.66667 14.5449C3.06839 14.6666 3.61099 14.6666 4.53333 14.6666H11.4667C12.389 14.6666 12.9316 14.6666 13.3333 14.5449M2.66667 14.5449C2.58054 14.5188 2.50088 14.4871 2.42535 14.4486C2.04902 14.2569 1.74306 13.9509 1.55131 13.5746C1.33333 13.1467 1.33333 12.5867 1.33333 11.4666V4.53325C1.33333 3.41315 1.33333 2.85309 1.55131 2.42527C1.74306 2.04895 2.04902 1.74299 2.42535 1.55124C2.85317 1.33325 3.41322 1.33325 4.53333 1.33325H11.4667C12.5868 1.33325 13.1468 1.33325 13.5747 1.55124C13.951 1.74299 14.2569 2.04895 14.4487 2.42527C14.6667 2.85309 14.6667 3.41315 14.6667 4.53325V11.4666C14.6667 12.5867 14.6667 13.1467 14.4487 13.5746C14.2569 13.9509 13.951 14.2569 13.5747 14.4486C13.4991 14.4871 13.4195 14.5188 13.3333 14.5449M2.66667 14.5449C2.66689 14.0053 2.67013 13.7199 2.7179 13.4797C2.92832 12.4219 3.75525 11.5949 4.81309 11.3845C5.07068 11.3333 5.38045 11.3333 5.99999 11.3333H9.99999C10.6195 11.3333 10.9293 11.3333 11.1869 11.3845C12.2447 11.5949 13.0717 12.4219 13.2821 13.4797C13.3299 13.7199 13.3331 14.0053 13.3333 14.5449M10.6667 6.33325C10.6667 7.80598 9.47273 8.99992 7.99999 8.99992C6.52723 8.99992 5.33333 7.80598 5.33333 6.33325C5.33333 4.86049 6.52723 3.66659 7.99999 3.66659C9.47273 3.66659 10.6667 4.86049 10.6667 6.33325Z" stroke="#334155" stroke-width="1.3" stroke-linecap="round" stroke-linejoin="round"/>
</g>
</g>
<defs>
<clipPath id="clip0_337_18254">
<rect width="16" height="16" fill="white"/>
</clipPath>
<clipPath id="clip1_337_18254">
<rect width="16" height="16" fill="white"/>
</clipPath>
</defs>
</svg>
