<svg width="14" height="14" viewBox="0 0 14 14" fill="none" xmlns="http://www.w3.org/2000/svg">
<path d="M6.12523 7.0001H2.91692M2.86753 7.17014L1.5055 11.2387C1.3985 11.5584 1.34499 11.7182 1.38339 11.8166C1.41673 11.9021 1.48834 11.9669 1.5767 11.9915C1.67846 12.0199 1.83215 11.9508 2.13953 11.8124L11.8879 7.4257C12.1879 7.29066 12.3379 7.22317 12.3843 7.12937C12.4246 7.04794 12.4246 6.95233 12.3843 6.87084C12.3379 6.77709 12.1879 6.70954 11.8879 6.57456L2.13613 2.1863C1.82968 2.04839 1.67645 1.97944 1.5748 2.00773C1.48652 2.03229 1.41491 2.09692 1.38146 2.18222C1.34293 2.28045 1.39586 2.43992 1.50172 2.75887L2.86791 6.87504C2.88609 6.92981 2.89518 6.95717 2.89878 6.98517C2.90196 7.01008 2.90193 7.03522 2.89868 7.06007C2.89502 7.08807 2.88586 7.11543 2.86753 7.17014Z" stroke="#334155" stroke-width="1.1" stroke-linecap="round" stroke-linejoin="round"/>
</svg>
