<svg width="14" height="14" viewBox="0 0 14 14" fill="none" xmlns="http://www.w3.org/2000/svg">
<path d="M12.2648 5.17444L8.39651 7.88318C8.04942 8.12618 7.75652 8.34271 7.41983 8.42664C7.1442 8.49537 6.85549 8.49537 6.57986 8.42664C6.24325 8.34266 5.95023 8.12615 5.60318 7.88318L1.73575 5.17529V8.8667C1.73575 9.36608 1.7356 9.70659 1.75711 9.96985C1.77806 10.2261 1.81628 10.359 1.86392 10.4526C1.9771 10.6748 2.15794 10.8555 2.38004 10.9688C2.47366 11.0165 2.60704 11.0546 2.86368 11.0756C3.12695 11.0971 3.46744 11.0978 3.96683 11.0978H10.0337C10.5327 11.0978 10.8729 11.097 11.136 11.0756C11.3926 11.0546 11.526 11.0165 11.6197 10.9688L11.7008 10.9235C11.8859 10.81 12.0367 10.6471 12.1358 10.4526C12.1834 10.359 12.2216 10.2262 12.2426 9.96985C12.2641 9.70659 12.2648 9.36608 12.2648 8.8667V5.17444ZM3.96683 2.90234C3.46747 2.90234 3.12694 2.9022 2.86368 2.92371C2.60703 2.94467 2.47366 2.98281 2.38004 3.03052C2.15791 3.14374 1.97715 3.3245 1.86392 3.54663C1.8314 3.61046 1.80396 3.69296 1.78275 3.82007L6.25601 6.95093C6.67968 7.24753 6.77232 7.30195 6.85501 7.32263H6.85587C6.95065 7.3462 7.04991 7.34627 7.14468 7.32263C7.22744 7.302 7.32039 7.24787 7.74454 6.95093L12.2161 3.82092C12.1949 3.69346 12.1684 3.61057 12.1358 3.54663C12.0225 3.32449 11.8418 3.14371 11.6197 3.03052C11.526 2.98282 11.3926 2.94467 11.136 2.92371C10.8729 2.90223 10.5327 2.90234 10.0337 2.90234H3.96683ZM13.4021 8.8667C13.4021 9.34723 13.4027 9.74184 13.3765 10.0621C13.3498 10.3891 13.2922 10.6889 13.1492 10.9696C12.9269 11.4058 12.572 11.7608 12.1358 11.983C11.8552 12.1259 11.556 12.1828 11.2292 12.2095C10.9089 12.2356 10.5142 12.2351 10.0337 12.2351H3.96683C3.48617 12.2351 3.09089 12.2356 2.77054 12.2095C2.44371 12.1827 2.14452 12.1252 1.86392 11.9822C1.42779 11.7599 1.07278 11.4058 0.850494 10.9696C0.707476 10.6889 0.650771 10.3891 0.624054 10.0621C0.597893 9.74184 0.597565 9.34726 0.597565 8.8667V5.13342C0.597565 4.77131 0.598461 4.45785 0.609528 4.18835C0.592371 4.09737 0.598913 4.00368 0.627472 3.91321C0.655042 3.59575 0.711049 3.3042 0.850494 3.03052C1.0728 2.59421 1.42762 2.2394 1.86392 2.01709C2.1445 1.87413 2.44373 1.81738 2.77054 1.79065C3.09089 1.76448 3.48617 1.76416 3.96683 1.76416H10.0337C10.5142 1.76416 10.9089 1.76448 11.2292 1.79065C11.556 1.81736 11.8552 1.87418 12.1358 2.01709C12.5721 2.23939 12.9269 2.59426 13.1492 3.03052C13.2893 3.30547 13.3465 3.59832 13.3739 3.91748C13.4016 4.00749 13.4076 4.10062 13.3902 4.19092C13.4011 4.45984 13.4021 4.77246 13.4021 5.13342V8.8667Z" fill="#334155"/>
</svg>
