<svg width="14" height="14" viewBox="0 0 14 14" fill="none" xmlns="http://www.w3.org/2000/svg">
<g clip-path="url(#clip0_357_38113)">
<path d="M9.33382 4.01666C9.69266 4.01683 9.98324 4.30817 9.98324 4.66705V7.58307C9.98324 7.87477 10.0992 8.1551 10.3055 8.36139C10.5118 8.56768 10.7921 8.68365 11.0838 8.68365C11.3753 8.68357 11.655 8.56749 11.8612 8.36139C12.0675 8.1551 12.1834 7.87477 12.1834 7.58307V7.00006C12.1834 5.90352 11.8357 4.83721 11.1932 3.95318L11.0604 3.77838C10.3332 2.86208 9.31766 2.21811 8.17855 1.95221C7.0395 1.68639 5.84354 1.81391 4.78597 2.31354C3.72827 2.81338 2.87026 3.65713 2.35238 4.70611C1.8346 5.75503 1.68714 6.94831 1.93343 8.09186C2.17976 9.23537 2.80514 10.2622 3.70882 11.0049C4.61259 11.7477 5.74129 12.1625 6.91097 12.1827C8.08059 12.2028 9.22242 11.8265 10.1512 11.1153C10.4362 10.897 10.8451 10.9514 11.0633 11.2364C11.2814 11.5213 11.227 11.9293 10.9422 12.1475C9.78047 13.0372 8.35154 13.5076 6.88851 13.4825C5.42552 13.4573 4.01405 12.9379 2.88363 12.0088C1.75327 11.0797 0.970019 9.79571 0.661946 8.36529C0.353915 6.93487 0.538612 5.44196 1.18636 4.12994C1.83414 2.81793 2.90737 1.76391 4.23031 1.13873C5.55321 0.513607 7.04859 0.354087 8.47347 0.686583C9.89844 1.01913 11.1693 1.82456 12.0789 2.97076C12.9883 4.1169 13.4832 5.53692 13.4832 7.00006V7.58307C13.4832 8.21957 13.2302 8.83026 12.7801 9.28033C12.3301 9.73022 11.7201 9.98337 11.0838 9.98346C10.4473 9.98346 9.83662 9.73039 9.38656 9.28033C9.30978 9.20356 9.24064 9.12066 9.17562 9.03522C8.63121 9.6169 7.85938 9.98346 6.99984 9.98346C5.35235 9.98328 4.01646 8.64756 4.01644 7.00006C4.01644 5.35252 5.35234 4.01684 6.99984 4.01666C7.62988 4.01666 8.21357 4.21355 8.69515 4.54694C8.7514 4.24521 9.01579 4.01666 9.33382 4.01666ZM5.31722 7.00006C5.31724 7.9296 6.07033 8.68347 6.99984 8.68365C7.87145 8.68365 8.58852 8.02084 8.67464 7.17194L8.68343 7.00006L8.67464 6.82819C8.58855 5.97923 7.87148 5.31647 6.99984 5.31647C6.07031 5.31665 5.31722 6.07048 5.31722 7.00006Z" fill="#64758B"/>
</g>
<defs>
<clipPath id="clip0_357_38113">
<rect width="14" height="14" fill="white"/>
</clipPath>
</defs>
</svg>
