<svg width="16" height="16" viewBox="0 0 16 16" fill="none" xmlns="http://www.w3.org/2000/svg">
<g clip-path="url(#clip0_331_9834)">
<path d="M11.3871 7.505C10.3757 7.14974 9.28794 6.95653 8.15508 6.95653C7.02223 6.95653 5.93449 7.14974 4.92304 7.505C4.83604 7.53556 4.79254 7.55084 4.74451 7.57718C4.57382 7.67082 4.43921 7.86078 4.40743 8.05285C4.39848 8.10689 4.39848 8.16078 4.39848 8.26856C4.39848 8.59817 4.39848 8.76297 4.3695 8.89971C4.26018 9.41537 3.85733 9.81823 3.34166 9.92754C3.20493 9.95653 3.04012 9.95653 2.71051 9.95653L2.52678 9.95653C2.02574 9.95653 1.77521 9.95653 1.57264 9.89005C1.16976 9.75782 0.853794 9.44185 0.72157 9.03898C0.655085 8.8364 0.655084 8.58588 0.655084 8.08483V7.93621C0.655084 7.43688 0.655085 7.18721 0.729465 6.92215C0.812001 6.62803 1.02844 6.25946 1.24509 6.04409C1.44033 5.85001 1.61113 5.75473 1.95274 5.56417C3.78856 4.54008 5.90368 3.95653 8.15508 3.95653C10.4065 3.95653 12.5216 4.54008 14.3574 5.56417C14.699 5.75473 14.8698 5.85001 15.0651 6.04409C15.2817 6.25946 15.4982 6.62803 15.5807 6.92215C15.6551 7.18721 15.6551 7.43688 15.6551 7.93621V8.08483C15.6551 8.58588 15.6551 8.8364 15.5886 9.03898C15.4564 9.44186 15.1404 9.75782 14.7375 9.89005C14.535 9.95653 14.2844 9.95653 13.7834 9.95653H13.5997C13.27 9.95653 13.1052 9.95653 12.9685 9.92754C12.4528 9.81823 12.05 9.41537 11.9407 8.89971C11.9117 8.76297 11.9117 8.59817 11.9117 8.26856C11.9117 8.16078 11.9117 8.10689 11.9027 8.05285C11.871 7.86078 11.7363 7.67082 11.5657 7.57718C11.5176 7.55084 11.4741 7.53556 11.3871 7.505Z" stroke="white" stroke-width="1.3" stroke-linecap="round" stroke-linejoin="round"/>
</g>
<defs>
<clipPath id="clip0_331_9834">
<rect width="16" height="16" fill="white"/>
</clipPath>
</defs>
</svg>
