<svg width="14" height="14" viewBox="0 0 14 14" fill="none" xmlns="http://www.w3.org/2000/svg">
<g clip-path="url(#clip0_357_38078)">
<path d="M2.3335 7.58333H11.4259C11.6957 7.58333 11.8306 7.58333 11.9076 7.52675C11.9748 7.47746 12.0177 7.40174 12.0254 7.31873C12.0343 7.22359 11.9649 7.10792 11.8261 6.87657L10.6442 4.90677C10.5919 4.81947 10.5657 4.77582 10.5554 4.72922C10.5464 4.68801 10.5464 4.64532 10.5554 4.60411C10.5657 4.55751 10.5919 4.51386 10.6442 4.42657L11.8261 2.45677C11.9649 2.22543 12.0343 2.10976 12.0254 2.01459C12.0177 1.93161 11.9748 1.8559 11.9076 1.80657C11.8306 1.75 11.6957 1.75 11.4259 1.75H2.3335V12.25" stroke="#64758B" stroke-width="1.1" stroke-linecap="round" stroke-linejoin="round"/>
</g>
<defs>
<clipPath id="clip0_357_38078">
<rect width="14" height="14" fill="white"/>
</clipPath>
</defs>
</svg>
