<svg width="14" height="14" viewBox="0 0 14 14" fill="none" xmlns="http://www.w3.org/2000/svg">
<g clip-path="url(#clip0_331_11445)">
<path d="M5.25 7.00025C5.25 7.96672 6.03348 8.75025 7 8.75025C7.96653 8.75025 8.75 7.96672 8.75 7.00025C8.75 6.03372 7.96653 5.25024 7 5.25024C6.03348 5.25024 5.25 6.03372 5.25 7.00025Z" stroke="#334155" stroke-width="1.1" stroke-linecap="round" stroke-linejoin="round"/>
<path d="M2.70023 5.41883L1.93344 5.75976C1.70524 5.86113 1.51128 6.02651 1.37519 6.23587C1.2391 6.44528 1.16665 6.68964 1.16671 6.93937C1.16665 7.18915 1.2391 7.43351 1.37519 7.64287C1.51128 7.85228 1.70524 8.01766 1.93344 8.11904L2.70023 8.45994C2.9723 8.58133 3.1991 8.78544 3.34837 9.04328C3.49806 9.30274 3.56182 9.60287 3.53049 9.90078L3.44171 10.7349C3.41546 10.9833 3.46177 11.2339 3.57512 11.4564C3.6884 11.6788 3.86387 11.8637 4.08011 11.9885C4.29629 12.1134 4.54403 12.1729 4.79335 12.1598C5.04267 12.1467 5.28282 12.0615 5.48466 11.9146L6.16331 11.4207C6.40673 11.2448 6.69974 11.1509 7.00004 11.1524C7.29952 11.1523 7.59131 11.2472 7.83357 11.4233L8.51217 11.9172C8.71402 12.0641 8.95417 12.1493 9.20348 12.1624C9.45279 12.1755 9.70056 12.116 9.91671 11.991C10.133 11.8663 10.3084 11.6815 10.4217 11.4589C10.5351 11.2364 10.5814 10.9858 10.5551 10.7376L10.4663 9.9034C10.4351 9.60549 10.4988 9.30531 10.6485 9.0459C10.7986 8.78754 11.0266 8.58332 11.2999 8.46257L12.0666 8.11904C12.2949 8.01766 12.4888 7.85228 12.6249 7.64287C12.761 7.43351 12.8334 7.18915 12.8334 6.93937C12.8334 6.68964 12.761 6.44528 12.6249 6.23587C12.4888 6.02651 12.2949 5.86113 12.0666 5.75976L11.2999 5.41883C11.0266 5.29804 10.7986 5.09385 10.6485 4.8355C10.4988 4.57605 10.4351 4.27589 10.4663 3.978L10.5551 3.14124C10.5814 2.89294 10.5351 2.64234 10.4217 2.41984C10.3084 2.19735 10.133 2.0125 9.91671 1.88772C9.70056 1.76279 9.45279 1.70326 9.20348 1.71638C8.95417 1.7295 8.71402 1.81469 8.51217 1.96162L7.83357 2.4555C7.59131 2.63163 7.29952 2.72648 7.00004 2.72643C6.70056 2.72648 6.40872 2.63163 6.16652 2.4555L5.48792 1.96162C5.28609 1.81469 5.04593 1.7295 4.79662 1.71638C4.5473 1.70326 4.2995 1.76279 4.08337 1.88772C3.86719 2.01263 3.69184 2.19749 3.57856 2.41996C3.46527 2.64242 3.41884 2.89295 3.44497 3.14124L3.53376 3.97541C3.56502 4.2733 3.50126 4.57345 3.35164 4.83291C3.20196 5.09222 2.97387 5.29737 2.70023 5.41883Z" stroke="#334155" stroke-width="1.1" stroke-linecap="round" stroke-linejoin="round"/>
</g>
<defs>
<clipPath id="clip0_331_11445">
<rect width="14" height="14" fill="white"/>
</clipPath>
</defs>
</svg>
