<svg width="14" height="14" viewBox="0 0 14 14" fill="none" xmlns="http://www.w3.org/2000/svg">
<g clip-path="url(#clip0_331_13312)">
<path d="M2.625 12.8334V9.91675M2.625 4.08341V1.16675M1.16666 2.62508H4.08333M1.16666 11.3751H4.08333M7.58333 1.75008L6.57171 4.38025C6.40721 4.80797 6.32496 5.02183 6.19704 5.20172C6.0837 5.36115 5.9444 5.50044 5.78497 5.61381C5.60508 5.74172 5.39122 5.82397 4.9635 5.98846L2.33333 7.00008L4.9635 8.0117C5.39122 8.1762 5.60508 8.25845 5.78497 8.38637C5.9444 8.49971 6.0837 8.63901 6.19704 8.79844C6.32496 8.97834 6.40721 9.19219 6.57171 9.61989L7.58333 12.2501L8.59495 9.61989C8.75945 9.19219 8.8417 8.97834 8.96962 8.79844C9.08296 8.63901 9.22226 8.49971 9.38169 8.38637C9.56159 8.25845 9.77544 8.1762 10.2031 8.0117L12.8333 7.00008L10.2031 5.98846C9.77544 5.82397 9.56159 5.74171 9.38169 5.61381C9.22226 5.50044 9.08296 5.36115 8.96962 5.20172C8.8417 5.02183 8.75945 4.80797 8.59495 4.38025L7.58333 1.75008Z" stroke="#334155" stroke-width="1.1" stroke-linecap="round" stroke-linejoin="round"/>
</g>
<defs>
<clipPath id="clip0_331_13312">
<rect width="14" height="14" fill="white"/>
</clipPath>
</defs>
</svg>
