<svg width="24" height="28" viewBox="0 0 24 28" fill="none" xmlns="http://www.w3.org/2000/svg">
<path fill-rule="evenodd" clip-rule="evenodd" d="M10.0187 0.541289C11.244 -0.18043 12.756 -0.18043 13.9813 0.54129L22.0325 5.28376C23.2504 6.00113 24 7.3227 24 8.75243V18.2698C24 19.6995 23.2504 21.0211 22.0325 21.7385L13.9813 26.4809C12.756 27.2027 11.244 27.2027 10.0187 26.4809L1.96747 21.7385C0.749616 21.0211 0 19.6995 0 18.2698V8.75243C0 7.3227 0.749617 6.00113 1.96747 5.28376L10.0187 0.541289Z" fill="white"/>
<path d="M8.24454 7.21094V7.21094C9.99636 7.21094 11.4165 8.63107 11.4165 10.3829V19.7297V19.7297C9.66467 19.7297 8.24454 18.3096 8.24454 16.5578V7.21094Z" fill="#333C46"/>
<path d="M13.0009 12.9141V12.9141C14.7528 12.9141 16.1729 14.3342 16.1729 16.086V20.0677V20.0677C14.4211 20.0677 13.0009 18.6475 13.0009 16.8957V12.9141Z" fill="#333C46"/>
</svg>
