<svg width="14" height="14" viewBox="0 0 14 14" fill="none" xmlns="http://www.w3.org/2000/svg">
<path d="M11.6663 5.25H8.7496V2.33333M8.7496 5.25L12.2496 1.75M5.96535 8.08681C5.26445 7.38587 4.71099 6.5933 4.305 5.74772C4.27007 5.67498 4.25261 5.63861 4.2392 5.59259C4.19153 5.42905 4.22577 5.22824 4.32494 5.08973C4.35285 5.05076 4.38619 5.01742 4.45287 4.95074C4.65681 4.7468 4.75878 4.64483 4.82544 4.54229C5.07686 4.15561 5.07686 3.6571 4.82544 3.27042C4.75878 3.16788 4.65681 3.06591 4.45287 2.86197L4.3392 2.7483C4.02919 2.43829 3.87418 2.28329 3.70771 2.19909C3.37663 2.03163 2.98565 2.03163 2.65457 2.19909C2.4881 2.28329 2.33309 2.43829 2.02309 2.7483L1.93114 2.84026C1.62218 3.1492 1.46771 3.30367 1.34973 3.5137C1.21882 3.74674 1.12469 4.10869 1.12549 4.37599C1.1262 4.61687 1.17294 4.78151 1.26639 5.11076C1.76862 6.88024 2.71623 8.54997 4.10922 9.94292C5.50221 11.3359 7.17192 12.2835 8.9414 12.7858C9.27063 12.8792 9.43531 12.926 9.67617 12.9267C9.94345 12.9275 10.3054 12.8333 10.5385 12.7024C10.7485 12.5844 10.903 12.43 11.2119 12.121L11.3038 12.0291C11.6139 11.719 11.7689 11.5641 11.8531 11.3976C12.0205 11.0665 12.0205 10.6755 11.8531 10.3444C11.7689 10.178 11.6139 10.023 11.3038 9.71297L11.1902 9.59927C10.9863 9.39534 10.8843 9.29337 10.7818 9.2267C10.3951 8.97528 9.89655 8.97528 9.50986 9.2267C9.40731 9.29337 9.30534 9.39534 9.10141 9.59927C9.03473 9.66595 9.00143 9.69932 8.9624 9.7272C8.82392 9.82642 8.62313 9.86067 8.45957 9.81295C8.41354 9.79953 8.3772 9.78209 8.30446 9.74715C7.45886 9.34115 6.66628 8.78768 5.96535 8.08681Z" stroke="#1B6F41" stroke-width="1.1" stroke-linecap="round" stroke-linejoin="round"/>
</svg>
