<svg width="10" height="10" viewBox="0 0 10 10" fill="none" xmlns="http://www.w3.org/2000/svg">
<g clip-path="url(#clip0_351_29619)">
<path d="M8.33333 3.75H6.24999V1.66667M6.24999 3.75L8.74999 1.25M4.26124 5.77629C3.7606 5.27562 3.36527 4.7095 3.07528 4.10551C3.05033 4.05356 3.03786 4.02758 3.02828 3.99471C2.99423 3.8779 3.01869 3.73445 3.08952 3.63552C3.10946 3.60769 3.13327 3.58387 3.1809 3.53624C3.32657 3.39057 3.39941 3.31774 3.44702 3.2445C3.62661 2.96829 3.62661 2.61222 3.44702 2.33601C3.39941 2.26277 3.32657 2.18994 3.1809 2.04427L3.09971 1.96307C2.87827 1.74164 2.76755 1.63092 2.64864 1.57078C2.41216 1.45117 2.13289 1.45117 1.8964 1.57078C1.77749 1.63092 1.66677 1.74164 1.44534 1.96307L1.37966 2.02875C1.15898 2.24943 1.04864 2.35977 0.964374 2.50978C0.870865 2.67624 0.803632 2.93478 0.804203 3.12571C0.804711 3.29777 0.83809 3.41536 0.904845 3.65055C1.26358 4.91446 1.94044 6.10712 2.93544 7.10208C3.93043 8.09708 5.12308 8.77396 6.38699 9.13271C6.62216 9.19946 6.73979 9.23283 6.91183 9.23333C7.10274 9.23392 7.36129 9.16667 7.52774 9.07317C7.67779 8.98887 7.78812 8.87854 8.00879 8.65787L8.07445 8.59221C8.29591 8.37075 8.40662 8.26004 8.46674 8.14112C8.58637 7.90467 8.58637 7.62537 8.46674 7.38887C8.40662 7.27 8.29591 7.15925 8.07445 6.93783L7.99329 6.85662C7.84762 6.71096 7.77479 6.63812 7.70154 6.5905C7.42533 6.41092 7.06924 6.41092 6.79304 6.5905C6.71979 6.63812 6.64695 6.71096 6.50129 6.85662C6.45366 6.90425 6.42987 6.92808 6.40199 6.948C6.30308 7.01887 6.15966 7.04333 6.04283 7.00925C6.00995 6.99967 5.98399 6.98721 5.93204 6.96225C5.32804 6.67225 4.76191 6.27692 4.26124 5.77629Z" stroke="#1B6F41" stroke-linecap="round" stroke-linejoin="round"/>
</g>
<defs>
<clipPath id="clip0_351_29619">
<rect width="10" height="10" fill="white"/>
</clipPath>
</defs>
</svg>
