<svg width="16" height="16" viewBox="0 0 16 16" fill="none" xmlns="http://www.w3.org/2000/svg">
<path d="M13.3332 6H9.99989V2.66667M9.99989 6L13.9999 2M6.81789 9.24207C6.01687 8.441 5.38434 7.5352 4.92035 6.56882C4.88043 6.48569 4.86048 6.44413 4.84515 6.39153C4.79067 6.20463 4.8298 5.97513 4.94314 5.81684C4.97503 5.7723 5.01314 5.73419 5.08935 5.65799C5.32241 5.42491 5.43895 5.30838 5.51514 5.19119C5.80247 4.74927 5.80247 4.17955 5.51514 3.73762C5.43895 3.62043 5.32241 3.5039 5.08935 3.27083L4.95943 3.14091C4.60514 2.78662 4.42799 2.60947 4.23773 2.51325C3.85936 2.32187 3.41252 2.32187 3.03415 2.51325C2.84389 2.60947 2.66674 2.78662 2.31245 3.14091L2.20736 3.24601C1.85427 3.59909 1.67773 3.77563 1.5429 4.01565C1.39329 4.28199 1.28571 4.69565 1.28663 5.00113C1.28744 5.27643 1.34085 5.46458 1.44765 5.84087C2.02163 7.86313 3.10461 9.7714 4.6966 11.3633C6.28859 12.9553 8.19683 14.0383 10.2191 14.6123C10.5954 14.7191 10.7836 14.7725 11.0588 14.7733C11.3643 14.7743 11.778 14.6667 12.0443 14.5171C12.2844 14.3822 12.4609 14.2057 12.814 13.8526L12.919 13.7475C13.2734 13.3932 13.4505 13.2161 13.5467 13.0258C13.7381 12.6475 13.7381 12.2006 13.5467 11.8222C13.4505 11.632 13.2734 11.4548 12.919 11.1005L12.7892 10.9706C12.5561 10.7375 12.4396 10.621 12.3224 10.5448C11.8804 10.2575 11.3107 10.2575 10.8688 10.5448C10.7516 10.621 10.635 10.7375 10.402 10.9706C10.3258 11.0468 10.2877 11.0849 10.2431 11.1168C10.0848 11.2302 9.85536 11.2693 9.66843 11.2148C9.61583 11.1995 9.57429 11.1795 9.49116 11.1396C8.52476 10.6756 7.61896 10.0431 6.81789 9.24207Z" stroke="#1B6F41" stroke-width="1.3" stroke-linecap="round" stroke-linejoin="round"/>
</svg>
