<svg width="14" height="14" viewBox="0 0 14 14" fill="none" xmlns="http://www.w3.org/2000/svg">
<path d="M11.6667 11.0834V9.33342H4.08334C3.11684 9.33342 2.33334 10.1169 2.33334 11.0834M5.13334 12.8334H9.8C10.4534 12.8334 10.7801 12.8334 11.0297 12.7062C11.2492 12.5944 11.4277 12.4159 11.5395 12.1964C11.6667 11.9469 11.6667 11.6201 11.6667 10.9667V3.03341C11.6667 2.38002 11.6667 2.05332 11.5395 1.80376C11.4277 1.58423 11.2492 1.40576 11.0297 1.29391C10.7801 1.16675 10.4534 1.16675 9.8 1.16675H5.13334C4.15324 1.16675 3.6632 1.16675 3.28885 1.35749C2.95957 1.52526 2.69185 1.79298 2.52407 2.12227C2.33334 2.49661 2.33334 2.98665 2.33334 3.96675V10.0334C2.33334 11.0135 2.33334 11.5035 2.52407 11.8779C2.69185 12.2072 2.95957 12.4749 3.28885 12.6427C3.6632 12.8334 4.15324 12.8334 5.13334 12.8334Z" stroke="#334155" stroke-width="1.1" stroke-linecap="round" stroke-linejoin="round"/>
</svg>
