<svg width="14" height="14" viewBox="0 0 14 14" fill="none" xmlns="http://www.w3.org/2000/svg">
<path d="M2.94434 1.03614C3.45988 0.775387 4.06943 0.775387 4.58497 1.03614C4.79662 1.14329 4.98527 1.31183 5.18165 1.50489L5.4961 1.81935C5.6765 1.99974 5.84098 2.15901 5.95411 2.33302C6.34546 2.93511 6.34555 3.71143 5.95411 4.31349C5.84094 4.48754 5.67655 4.64671 5.4961 4.82716C5.48317 4.8401 5.47208 4.85013 5.4629 4.85939L5.47462 4.88282L5.6211 5.17384C5.97877 5.84555 6.44157 6.47669 7.0088 7.04396C7.65704 7.69216 8.38872 8.20349 9.16895 8.57814C9.17775 8.58236 9.18557 8.58562 9.19239 8.58888C9.20163 8.57971 9.21267 8.56957 9.22559 8.55665C9.40597 8.37622 9.56508 8.21182 9.73927 8.09864L9.85352 8.02931C10.4372 7.7081 11.1552 7.7316 11.7197 8.09864C11.8939 8.21184 12.0531 8.37627 12.2334 8.55665L12.5469 8.87013C12.7403 9.06685 12.9094 9.25572 13.0166 9.46778L13.1025 9.66505C13.2736 10.1339 13.2446 10.6564 13.0166 11.1074C12.9094 11.3194 12.7403 11.5084 12.5469 11.7051L12.0488 12.2031C11.8505 12.3973 11.6686 12.5574 11.4404 12.6856C11.1097 12.8713 10.6373 12.9943 10.2578 12.9932C9.91387 12.9922 9.6652 12.9183 9.34766 12.8281C7.47438 12.2964 5.70673 11.2926 4.23341 9.81935C2.76006 8.34599 1.75634 6.5784 1.22462 4.70509C1.13447 4.38749 1.05966 4.13887 1.0586 3.79493C1.05747 3.41559 1.18047 2.94313 1.36622 2.61231C1.53712 2.3081 1.76582 2.08673 2.0547 1.79786L2.14649 1.70509C2.42023 1.43135 2.66192 1.17912 2.94434 1.03614ZM3.99805 2.1963C3.85144 2.12214 3.67788 2.12214 3.53126 2.1963C3.48095 2.22184 3.41181 2.27961 3.06641 2.62501L2.97462 2.71681C2.64578 3.04564 2.56499 3.13336 2.50001 3.24903C2.42406 3.38434 2.35892 3.63596 2.35938 3.79103C2.35981 3.92856 2.37897 4.00918 2.47559 4.34962C2.94834 6.0152 3.83974 7.58778 5.15235 8.9004C6.46484 10.2129 8.0367 11.1044 9.70216 11.5772C10.0429 11.6739 10.1241 11.693 10.2617 11.6934C10.4168 11.6938 10.6684 11.6287 10.8037 11.5527C10.9193 11.4878 11.0071 11.407 11.3359 11.0781L11.4277 10.9863L11.7627 10.6426C11.8233 10.576 11.8437 10.5456 11.8565 10.5205C11.9305 10.3739 11.9305 10.2011 11.8565 10.0547C11.831 10.0044 11.7739 9.93507 11.4277 9.58888L11.3145 9.4756C11.2006 9.36168 11.1323 9.29472 11.0889 9.25392L11.0107 9.18849C10.8608 9.09104 10.6731 9.07907 10.5137 9.15235L10.4473 9.18849C10.4319 9.19847 10.4132 9.21345 10.3701 9.25392L10.1445 9.4756C10.0916 9.52852 10.016 9.60588 9.92384 9.67189C9.62313 9.88719 9.21636 9.95696 8.86134 9.85353C8.80754 9.83784 8.7586 9.81928 8.71583 9.80079L8.60645 9.75001C7.69568 9.3127 6.84237 8.71639 6.08887 7.9629C5.33558 7.20948 4.74 6.35607 4.30274 5.44532V5.4463C4.2737 5.38582 4.22951 5.29863 4.19825 5.19142C4.09475 4.83634 4.16456 4.42866 4.37989 4.12794C4.44585 4.03583 4.52433 3.96105 4.57716 3.90821C4.80454 3.68083 4.84411 3.6355 4.86427 3.6045C4.97542 3.4333 4.97555 3.21219 4.86427 3.04103C4.84407 3.01004 4.80394 2.96508 4.57716 2.73829L4.4629 2.62501C4.11754 2.27965 4.04836 2.22185 3.99805 2.1963Z" fill="#64758B"/>
</svg>
