<svg width="16" height="16" viewBox="0 0 16 16" fill="none" xmlns="http://www.w3.org/2000/svg">
<g clip-path="url(#clip0_344_1797)">
<path d="M8.00016 14.6667C11.6821 14.6667 14.6668 11.6819 14.6668 8.00004C14.6668 4.31814 11.6821 1.33337 8.00016 1.33337C4.31826 1.33337 1.3335 4.31814 1.3335 8.00004C1.3335 11.6819 4.31826 14.6667 8.00016 14.6667Z" stroke="#334155" stroke-width="1.3" stroke-linecap="round" stroke-linejoin="round"/>
<path d="M6.3335 5.97693C6.3335 5.65874 6.3335 5.49964 6.39999 5.41083C6.45794 5.33342 6.54664 5.285 6.64308 5.27811C6.75375 5.2702 6.88758 5.35624 7.15523 5.5283L10.3023 7.55141C10.5346 7.70072 10.6507 7.77537 10.6908 7.8703C10.7258 7.95324 10.7258 8.04684 10.6908 8.12978C10.6507 8.22471 10.5346 8.29936 10.3023 8.44867L7.15523 10.4718C6.88758 10.6438 6.75375 10.7299 6.64308 10.722C6.54664 10.7151 6.45794 10.6667 6.39999 10.5893C6.3335 10.5004 6.3335 10.3413 6.3335 10.0232V5.97693Z" stroke="#334155" stroke-width="1.3" stroke-linecap="round" stroke-linejoin="round"/>
</g>
<defs>
<clipPath id="clip0_344_1797">
<rect width="16" height="16" fill="white"/>
</clipPath>
</defs>
</svg>
