<svg width="14" height="14" viewBox="0 0 14 14" fill="none" xmlns="http://www.w3.org/2000/svg">
<path d="M1.45833 6.99992H3.43115C3.83085 6.99992 4.19625 7.22573 4.375 7.58325C4.55375 7.94078 4.91915 8.16658 5.31885 8.16658H8.68116C9.08086 8.16658 9.44626 7.94078 9.625 7.58325C9.80373 7.22573 10.1691 6.99992 10.5688 6.99992H12.5417M5.23049 2.33325H8.76948C9.39767 2.33325 9.71174 2.33325 9.98906 2.4289C10.2343 2.51348 10.4576 2.65152 10.643 2.83302C10.8525 3.03827 10.993 3.3192 11.2739 3.88105L12.5377 6.40871C12.6479 6.62921 12.7031 6.73946 12.742 6.85496C12.7765 6.95763 12.8014 7.06321 12.8164 7.17043C12.8333 7.29112 12.8333 7.41438 12.8333 7.66089V8.86658C12.8333 9.8467 12.8333 10.3367 12.6426 10.7111C12.4748 11.0404 12.2071 11.3081 11.8778 11.4758C11.5034 11.6666 11.0134 11.6666 10.0333 11.6666H3.96666C2.98657 11.6666 2.49652 11.6666 2.12218 11.4758C1.7929 11.3081 1.52518 11.0404 1.3574 10.7111C1.16666 10.3367 1.16666 9.8467 1.16666 8.86658V7.66089C1.16666 7.41438 1.16666 7.29112 1.18356 7.17043C1.19858 7.06321 1.2235 6.95763 1.25803 6.85496C1.2969 6.73946 1.35202 6.62921 1.46227 6.40871L2.72609 3.88105C3.00702 3.3192 3.14749 3.03827 3.35705 2.83302C3.54236 2.65152 3.76571 2.51348 4.01093 2.4289C4.28823 2.33325 4.60232 2.33325 5.23049 2.33325Z" stroke="#334155" stroke-width="1.1" stroke-linecap="round" stroke-linejoin="round"/>
</svg>
