<svg width="14" height="14" viewBox="0 0 14 14" fill="none" xmlns="http://www.w3.org/2000/svg">
<g clip-path="url(#clip0_331_10769)">
<path d="M7 7V2.5M7 7H11.5M7 7V11.5M7 7H2.5M7 2.5C7 2.10218 7.15804 1.72064 7.43934 1.43934C7.72065 1.15804 8.10218 1 8.5 1C8.89783 1 9.27936 1.15804 9.56066 1.43934C9.84197 1.72064 10 2.10218 10 2.5V7M7 2.5C7 2.20333 6.91203 1.91332 6.74721 1.66665C6.58238 1.41997 6.34812 1.22771 6.07403 1.11418C5.79994 1.00065 5.49834 0.970945 5.20737 1.02882C4.91639 1.0867 4.64912 1.22956 4.43934 1.43934C4.22956 1.64912 4.0867 1.91639 4.02882 2.20737C3.97095 2.49834 4.00065 2.79994 4.11418 3.07403C4.22771 3.34812 4.41997 3.58238 4.66665 3.7472C4.91332 3.91203 5.20333 4 5.5 4M10 5.5C10 5.20333 10.088 4.91332 10.2528 4.66664C10.4176 4.41997 10.6519 4.22771 10.926 4.11418C11.2001 4.00065 11.5017 3.97094 11.7926 4.02882C12.0836 4.0867 12.3509 4.22956 12.5607 4.43934C12.7704 4.64912 12.9133 4.91639 12.9712 5.20736C13.0291 5.49834 12.9994 5.79994 12.8858 6.07402C12.7723 6.34811 12.58 6.58238 12.3334 6.7472C12.0867 6.91203 11.7967 7 11.5 7M11.5 7C11.8978 7 12.2794 7.15804 12.5607 7.43934C12.842 7.72064 13 8.10217 13 8.5C13 8.89782 12.842 9.27935 12.5607 9.56066C12.2794 9.84196 11.8978 10 11.5 10H7M8.5 10C8.79667 10 9.08668 10.088 9.33336 10.2528C9.58003 10.4176 9.77229 10.6519 9.88582 10.926C9.99935 11.2001 10.0291 11.5017 9.97118 11.7926C9.9133 12.0836 9.77044 12.3509 9.56066 12.5607C9.35088 12.7704 9.08361 12.9133 8.79264 12.9712C8.50167 13.0291 8.20007 12.9993 7.92598 12.8858C7.65189 12.7723 7.41762 12.58 7.2528 12.3334C7.08798 12.0867 7 11.7967 7 11.5M7 11.5C7 11.8978 6.84197 12.2794 6.56066 12.5607C6.27936 12.842 5.89783 13 5.5 13C5.10218 13 4.72065 12.842 4.43934 12.5607C4.15804 12.2794 4 11.8978 4 11.5V7M4 8.5C4 8.79667 3.91203 9.08668 3.74721 9.33335C3.58238 9.58003 3.34812 9.77229 3.07403 9.88582C2.79994 9.99935 2.49834 10.0291 2.20737 9.97118C1.91639 9.9133 1.64912 9.77044 1.43934 9.56066C1.22956 9.35088 1.0867 9.08361 1.02882 8.79263C0.970945 8.50166 1.00065 8.20006 1.11418 7.92597C1.22771 7.65189 1.41997 7.41762 1.66665 7.2528C1.91332 7.08797 2.20333 7 2.5 7M2.5 7C2.10218 7 1.72065 6.84196 1.43934 6.56066C1.15804 6.27936 1 5.89783 1 5.5C1 5.10218 1.15804 4.72065 1.43934 4.43934C1.72065 4.15804 2.10218 4 2.5 4H7" stroke="#334155" stroke-linecap="round" stroke-linejoin="round"/>
</g>
<defs>
<clipPath id="clip0_331_10769">
<rect width="14" height="14" fill="white"/>
</clipPath>
</defs>
</svg>
