<svg width="14" height="14" viewBox="0 0 14 14" fill="none" xmlns="http://www.w3.org/2000/svg">
<path d="M8.16683 6.41663H4.66683M5.8335 8.74996H4.66683M9.3335 4.08329H4.66683M11.6668 3.96663V10.0333C11.6668 11.0134 11.6668 11.5034 11.4761 11.8778C11.3083 12.2071 11.0406 12.4748 10.7113 12.6425C10.3369 12.8333 9.84695 12.8333 8.86683 12.8333H5.1335C4.1534 12.8333 3.66336 12.8333 3.28901 12.6425C2.95973 12.4748 2.69201 12.2071 2.52423 11.8778C2.3335 11.5034 2.3335 11.0134 2.3335 10.0333V3.96663C2.3335 2.98653 2.3335 2.49649 2.52423 2.12214C2.69201 1.79286 2.95973 1.52514 3.28901 1.35736C3.66336 1.16663 4.1534 1.16663 5.1335 1.16663H8.86683C9.84695 1.16663 10.3369 1.16663 10.7113 1.35736C11.0406 1.52514 11.3083 1.79286 11.4761 2.12214C11.6668 2.49649 11.6668 2.98653 11.6668 3.96663Z" stroke="#334155" stroke-width="1.3" stroke-linecap="round" stroke-linejoin="round"/>
</svg>
