<svg width="14" height="14" viewBox="0 0 14 14" fill="none" xmlns="http://www.w3.org/2000/svg">
<path d="M11.6667 12.25C11.6667 11.4359 11.6667 11.0289 11.5662 10.6977C11.34 9.95196 10.7564 9.36833 10.0106 9.14212C9.67943 9.04167 9.27244 9.04167 8.45834 9.04167H5.54167C4.72759 9.04167 4.32055 9.04167 3.98934 9.14212C3.2436 9.36833 2.66003 9.95196 2.43381 10.6977C2.33334 11.0289 2.33334 11.4359 2.33334 12.25M9.625 4.375C9.625 5.82475 8.44976 7 7 7C5.55026 7 4.375 5.82475 4.375 4.375C4.375 2.92525 5.55026 1.75 7 1.75C8.44976 1.75 9.625 2.92525 9.625 4.375Z" stroke="#334155" stroke-width="1.1" stroke-linecap="round" stroke-linejoin="round"/>
</svg>
