<svg width="14" height="14" viewBox="0 0 14 14" fill="none" xmlns="http://www.w3.org/2000/svg">
<g clip-path="url(#clip0_331_10776)">
<path d="M8.19565 3.50008C8.76539 3.61125 9.28899 3.8899 9.69948 4.30038C10.11 4.71085 10.3886 5.23448 10.4998 5.80425M8.19565 1.16675C9.37935 1.29825 10.4832 1.82835 11.3259 2.67C12.1687 3.51165 12.7001 4.61484 12.8331 5.79841M5.9655 8.08689C5.26461 7.38596 4.71115 6.59338 4.30515 5.7478C4.27023 5.67506 4.25277 5.63869 4.23935 5.59267C4.19168 5.42914 4.22592 5.22832 4.3251 5.08982C4.353 5.05084 4.38634 5.0175 4.45303 4.95082C4.65696 4.74688 4.75893 4.64491 4.8256 4.54238C5.07701 4.15569 5.07701 3.65718 4.8256 3.2705C4.75893 3.16796 4.65696 3.06599 4.45303 2.86205L4.33935 2.74838C4.02934 2.43837 3.87434 2.28337 3.70786 2.19917C3.37679 2.03171 2.9858 2.03171 2.65473 2.19917C2.48825 2.28337 2.33325 2.43837 2.02324 2.74838L1.93129 2.84034C1.62234 3.14928 1.46786 3.30375 1.34989 3.51378C1.21897 3.74682 1.12485 4.10877 1.12565 4.37607C1.12636 4.61695 1.17309 4.78159 1.26654 5.11085C1.76878 6.88032 2.71638 8.55006 4.10937 9.943C5.50236 11.336 7.17207 12.2836 8.94155 12.7859C9.27079 12.8793 9.43546 12.926 9.67632 12.9267C9.9436 12.9276 10.3056 12.8334 10.5386 12.7025C10.7487 12.5845 10.9031 12.43 11.2121 12.1211L11.304 12.0292C11.614 11.7191 11.769 11.5641 11.8532 11.3977C12.0207 11.0666 12.0207 10.6756 11.8532 10.3445C11.769 10.1781 11.614 10.023 11.304 9.71305L11.1904 9.59936C10.9864 9.39542 10.8845 9.29346 10.7819 9.22678C10.3952 8.97537 9.8967 8.97537 9.51001 9.22678C9.40746 9.29346 9.3055 9.39542 9.10156 9.59936C9.03489 9.66603 9.00158 9.6994 8.96255 9.72728C8.82407 9.82651 8.62329 9.86075 8.45972 9.81303C8.4137 9.79962 8.37735 9.78217 8.30461 9.74723C7.45901 9.34123 6.66644 8.78777 5.9655 8.08689Z" stroke="#334155" stroke-width="1.3" stroke-linecap="round" stroke-linejoin="round"/>
</g>
<defs>
<clipPath id="clip0_331_10776">
<rect width="14" height="14" fill="white"/>
</clipPath>
</defs>
</svg>
