<svg width="14" height="14" viewBox="0 0 14 14" fill="none" xmlns="http://www.w3.org/2000/svg">
<path d="M6.75733 11.2145C5.32762 10.4704 4.11497 9.36875 3.23746 8.01681C2.35995 6.66487 1.8475 5.10872 1.75 3.49992C1.75 3.1905 1.87292 2.89375 2.09171 2.67496C2.3105 2.45617 2.60725 2.33325 2.91667 2.33325H5.25L6.41667 5.24992L4.95833 6.12492C5.58306 7.39165 6.60827 8.41686 7.875 9.04159L8.75 7.58325L9.12917 7.73492" stroke="#334155" stroke-width="1.1" stroke-linecap="round" stroke-linejoin="round"/>
<path d="M11.0844 12.2501C10.7749 12.2501 10.4782 12.1272 10.2594 11.9084C10.0406 11.6896 9.91768 11.3928 9.91768 11.0834C9.91768 10.774 10.0406 10.4772 10.2594 10.2585C10.4782 10.0397 10.7749 9.91675 11.0844 9.91675M11.0844 12.2501C11.3938 12.2501 11.6905 12.1272 11.9093 11.9084C12.1281 11.6896 12.251 11.3928 12.251 11.0834C12.251 10.774 12.1281 10.4772 11.9093 10.2585C11.6905 10.0397 11.3938 9.91675 11.0844 9.91675M11.0844 12.2501V13.1251M11.0844 9.91675V9.04175M12.8524 10.0626L12.0946 10.5001M10.0747 11.6667L9.31641 12.1042M9.31641 10.0626L10.0747 10.5001M12.0946 11.6667L12.853 12.1042" stroke="#334155" stroke-width="1.1" stroke-linecap="round" stroke-linejoin="round"/>
</svg>
