<svg width="16" height="16" viewBox="0 0 16 16" fill="none" xmlns="http://www.w3.org/2000/svg">
<path d="M9.21746 4.43417C9.79883 4.54761 10.3331 4.83195 10.752 5.2508C11.1709 5.66966 11.4552 6.20397 11.5687 6.78536M9.21746 2.05322C10.4253 2.18741 11.5517 2.72832 12.4116 3.58716C13.2716 4.44598 13.8139 5.57168 13.9496 6.77941M6.94181 9.11459C6.22661 8.39935 5.66185 7.5906 5.24757 6.72776C5.21193 6.65354 5.19412 6.61643 5.18043 6.56947C5.13178 6.4026 5.16673 6.19768 5.26792 6.05635C5.2964 6.01658 5.33042 5.98256 5.39846 5.91452C5.60656 5.70642 5.71061 5.60237 5.77864 5.49774C6.03518 5.10316 6.03518 4.59448 5.77864 4.19991C5.71061 4.09528 5.60656 3.99123 5.39846 3.78313L5.28247 3.66713C4.96614 3.3508 4.80796 3.19263 4.63809 3.10672C4.30026 2.93584 3.9013 2.93584 3.56346 3.10672C3.3936 3.19263 3.23542 3.3508 2.91909 3.66713L2.82526 3.76097C2.51001 4.07622 2.35238 4.23384 2.23199 4.44815C2.09841 4.68595 2.00236 5.05529 2.00318 5.32804C2.00391 5.57384 2.05159 5.74183 2.14695 6.07781C2.65943 7.8834 3.62638 9.58721 5.0478 11.0086C6.46921 12.43 8.173 13.397 9.97859 13.9095C10.3145 14.0048 10.4826 14.0525 10.7284 14.0532C11.0011 14.054 11.3704 13.958 11.6082 13.8244C11.8226 13.704 11.9802 13.5464 12.2954 13.2311L12.3892 13.1373C12.7056 12.821 12.8638 12.6628 12.9497 12.4929C13.1206 12.1551 13.1206 11.7561 12.9497 11.4183C12.8638 11.2485 12.7056 11.0902 12.3892 10.7739L12.2733 10.6579C12.0652 10.4498 11.9611 10.3458 11.8565 10.2777C11.4619 10.0212 10.9532 10.0212 10.5587 10.2777C10.454 10.3458 10.35 10.4498 10.1419 10.6579C10.0738 10.726 10.0398 10.76 10 10.7885C9.85871 10.8897 9.65383 10.9246 9.48693 10.876C9.43996 10.8623 9.40288 10.8445 9.32865 10.8088C8.46579 10.3945 7.65704 9.82977 6.94181 9.11459Z" stroke="#334155" stroke-width="1.3" stroke-linecap="round" stroke-linejoin="round"/>
</svg>
